<?xml version="1.0" encoding="UTF-8"?>
<svg width="1200pt" height="1200pt" version="1.1" viewBox="0 0 1200 1200" xmlns="http://www.w3.org/2000/svg">
 <path d="m1156.8 92.398s-0.12109-1.3203-0.35938-3.3594c-1.5586-11.16-10.32-47.879-57.359-67.441-5.0391-2.3984-10.199-4.6797-15.359-6.7188l-0.96094-0.48047-613.08 593.52c-0.23828 0-0.48047 0-0.60156 0.12109-0.83984 0.48047-1.3203 1.5586-0.71875 2.8789 1.8008 3.8398-3.2383 12.48-6.9609 17.039l-2.0391 2.6406h0.35938c-3 0-6 0-9.1211 0.35938l-2.1602 0.23828 0.71875 2.0391c0 0.12109 3 8.1602-1.5586 11.762-1.8008 1.4414-26.879 30-74.762 84.602-90.836 103.44-228.36 260.4-249.36 278.28-30.961 26.281-86.879 110.64-89.16 114.24l-2.0391 3 4.1992-0.48047c21.961 0.60156 144 4.5586 130.44 13.559-14.879 9.8398 5.8789 24.719 24 23.52 18.121-1.1992 127.68-23.398 104.4 0.12109-23.281 23.52 140.64 19.68 140.64 19.68s30.238-1.9219 11.281-12.719c-18.961-10.801-37.32-0.60156-43.68-1.3203-6.3594-0.60156-87.359 2.5195-91.199-3.8398-3.8398-6.3594 10.078-2.1602 10.078-10.559s-47.641-9.7188-57-7.0781-72.719 9.8398-78.48 7.0781c-5.6406-2.6406-22.801-5.2812-6.9609-14.039 15.84-8.7617 1.3203-15.602-17.762-14.398-15.238 0.71875-83.277-4.1992-114.24-2.6406 0.48047-0.96094 1.3203-1.9219 2.2812-2.8789 7.5586-4.5586 24.121-13.922 39.719-22.199 9.3594-4.0781 18.238-7.6797 24.359-10.199 8.3984-3.3594 9.2383-3.7188 9.7188-4.3203 0 0 32.52-19.32 79.199-45.121 10.801-5.5195 21-10.801 29.398-15.121 25.078-12.84 25.078-12.84 25.441-13.559 0.48047-0.71875 5.3984-5.6406 11.16-11.52 11.039-9.7188 25.32-23.398 36-37.32 9.3594-10.078 16.199-17.879 17.52-21 3.7188-7.6797 163.2-170.64 224.28-232.8l0.83984-0.83984-0.48047-1.0781c-1.0781-2.2812-2.1602-4.4414-3.3594-6.6016l0.12109-2.2812 0.60156-0.60156c6.3594-7.0781 13.559-9.9609 22.078-8.6406l3.9609 0.60156-1.8008-2.2812 25.559-25.801c8.3984-8.0391 18.602-17.879 30.359-29.281 109.92-107.4 350.4-351.84 466.56-470.28l65.52-66zm-613.08 598.92c-0.48047-0.71875-1.0781-1.5586-1.6797-2.6406-9.2383-14.52-36.719-57.961-76.078-61.32 2.6406-3.8398 6.9609-10.922 6-16.199 10.078 2.7617 60.238 29.398 91.559 71.641-7.4414-0.24219-13.918 2.6406-19.801 8.5195zm-224.04 246.24-4.4414 5.0391c2.2812-19.68-88.32 29.879-88.32 29.879-81.359 38.039-149.16 111.84-172.32 138.84-4.5586 3.1211-7.9219 6-9.6016 8.7617l-6.1211 0.71875c6.7188-9.9609 29.039-42.84 51.359-71.281 23.641-27.238 42.602-46.32 42.84-46.441 36.121-36.48 158.76-176.28 242.28-271.56 40.32-46.078 72.238-82.441 74.281-84.121 1.4414-1.1992 2.2812-2.6406 2.8789-4.0781l0.12109-0.12109v-0.12109c1.1992-3.2383 0.83984-6.8398 0.23828-9.1211 36.961-3 66 19.559 90.84 70.68-26.035 26.527-220.07 223.93-224.04 232.93zm249.6-256.92-1.0781 1.0781c-0.35938 0.23828-0.60156 0.48047-0.83984 0.60156-28.68-39.48-77.641-68.879-93.48-73.922l609.6-590.16c43.559 12.961 60.48 39.359 67.078 57.238 1.4414 5.0391 2.5195 10.441 2.8789 16.199z"/>
 <path d="m559.2 642.6 0.60156 0.47656 169.8-168.84-0.60156-0.47656z"/>
 <path d="m775.2 403.8 0.60156 0.59766 119.04-115.08-0.60156-0.60156z"/>
 <path d="m770.17 439.25 49.441-52.672 0.61328 0.57422-49.441 52.672z"/>
 <path d="m955.14 265.17 77.359-79.109 0.60156 0.58594-77.359 79.109z"/>
 <path d="m1008 184.08 0.60156 0.60156 27.238-27.238-0.60156-0.60156z"/>
 <path d="m1088 113.46 46.328-46.16 0.59375 0.59375-46.328 46.16z"/>
 <path d="m1075.8 141.12 0.59766 0.59766 32.16-35.398-0.59766-0.48047z"/>
 <path d="m582.05 633.67 25.969-25.621 0.58984 0.59766-25.969 25.621z"/>
 <path d="m652.4 537.41 27.012-30.098 0.625 0.5625-27.012 30.098z"/>
 <path d="m324 912.6 0.71875 0.47656 39.48-43.918-0.59766-0.60156z"/>
 <path d="m342.36 876.76 41.23-46.68 0.62891 0.55469-41.23 46.68z"/>
 <path d="m449.45 780.26 70.859-69.305 0.58594 0.60156-70.859 69.305z"/>
 <path d="m499.09 716.32 20.148-21.078 0.60547 0.58203-20.148 21.078z"/>
 <path d="m459.42 755.42 13.359-14.289 0.61328 0.57422-13.359 14.289z"/>
 <path d="m419.99 816.13 10.328-13.098 0.66016 0.51953-10.328 13.098z"/>
 <path d="m193.44 1134.8c-5.1602 2.5195 0 4.8008 0 4.8008s21.238 3.8398 17.398-4.8008-17.398 0-17.398 0z"/>
 <path d="m243.24 1128.6c0.83984-15.48-24.238-3.4805-24.238-3.4805s-2.3984 0.96094-1.1992 4.8008 24 1.0781 24 1.0781h-0.12109c0.71875 0 1.4414-0.35938 1.5586-2.3984z"/>
 <path d="m252.36 1136.5c-6-3.7188-11.039 0-11.039 0-2.2812 1.0781-0.96094 2.1602-0.96094 2.1602s18 1.5586 12-2.1602z"/>
</svg>
